<?xml version="1.0" encoding="UTF-8" standalone="no"?><!DOCTYPE svg PUBLIC "-//W3C//DTD SVG 1.1//EN" "http://www.w3.org/Graphics/SVG/1.1/DTD/svg11.dtd"><svg width="100%" height="100%" viewBox="0 0 4105 3996" version="1.1" xmlns="http://www.w3.org/2000/svg" xmlns:xlink="http://www.w3.org/1999/xlink" xml:space="preserve" xmlns:serif="http://www.serif.com/" style="fill-rule:evenodd;clip-rule:evenodd;stroke-linecap:round;"><rect id="Light" x="-70.833" y="-66.667" width="15098.6" height="4389.21" style="fill:none;"/><clipPath id="_clip1"><rect id="Light1" serif:id="Light" x="-70.833" y="-66.667" width="15098.6" height="4389.21"/></clipPath><g clip-path="url(#_clip1)"><g><path d="M2945.46,3310.78c380.333,43.25 756.083,36.5 980.75,0c135.25,16.917 174.417,95.917 162.417,162.417c20,43.417 -41.334,109.583 -0,324.75c-22.417,125.417 -62.834,185.5 -162.417,162.333c-214,-49.916 -418,-24.833 -980.75,0c-154.25,-44.166 -180.083,-17.916 -162.417,-162.333c47.334,-99.333 -35.333,-259.417 0,-324.75c-25.166,-73.75 10.5,-173.75 162.417,-162.417" style="fill:#343a40;fill-rule:nonzero;"/><path d="M2945.46,3310.78c335.167,24.417 603.167,34.834 980.75,0m-980.75,0c381.5,-4.666 738.667,-6.583 980.75,0m0,0c93.083,31.584 189.167,58.584 162.417,162.417m-162.417,-162.417c105.917,-20.583 151,72.167 162.417,162.417m-0,0c18.833,59.25 3.416,173.167 -0,324.75m-0,-324.75c-14.667,73.333 9.333,166.167 -0,324.75m-0,0c-29.5,106.917 -59.584,187.333 -162.417,162.333m162.417,-162.333c-4.834,104.167 -48.25,187.417 -162.417,162.333m0,0c-415.583,-7.666 -780.417,-13.25 -980.75,0m980.75,0c-234.5,2.25 -436.417,20.667 -980.75,0m0,0c-132.833,9.917 -157.167,-63.583 -162.417,-162.333m162.417,162.333c-89.5,12.417 -180.833,-75.583 -162.417,-162.333m0,0c24.25,-101.667 5.417,-175.333 0,-324.75m0,324.75c7.25,-82.5 7.084,-171.583 0,-324.75m0,0c-28.833,-115.333 54.584,-178.083 162.417,-162.417m-162.417,162.417c-5.416,-82 31.5,-163 162.417,-162.417" style="fill:none;fill-rule:nonzero;stroke:#343a40;stroke-width:33.33px;"/></g><g><path d="M174.917,3310.78c227.5,19 419,17.084 980.75,0c125.166,12 204.166,8.5 162.416,162.417c-16.166,43.167 -15.583,136.667 0,324.75c17.167,99.5 -31,127.333 -162.416,162.333c-251.917,27.167 -452,-42 -980.75,0c-152.417,-17.666 -126.167,-25.416 -162.417,-162.333c11.167,-119.25 -31.583,-182.667 0,-324.75c34.5,-151.917 42.75,-145.417 162.417,-162.417" style="fill:#343a40;fill-rule:nonzero;"/><path d="M174.917,3310.78c239.75,-23.083 475,7.417 980.75,0m-980.75,0c219.333,-15 450.833,-20.916 980.75,0m-0,0c139.833,26.834 166.916,52.084 162.416,162.417m-162.416,-162.417c87.666,-11.416 180.416,44.084 162.416,162.417m0,0c-29.75,87.167 -4.75,137.5 0,324.75m0,-324.75c0.667,94.417 18.584,149.25 0,324.75m0,0c-1.333,102.75 -29.166,158.167 -162.416,162.333m162.416,-162.333c-4.083,114.167 -29.083,199.25 -162.416,162.333m-0,0c-318.417,-18.75 -627.917,-38.833 -980.75,0m980.75,0c-269.5,6.917 -510.584,-21.833 -980.75,0m-0,0c-98.334,5.25 -171.834,-37.75 -162.417,-162.333m162.417,162.333c-95.917,-18.416 -183.917,-79.833 -162.417,-162.333m0,0c-27.583,-97.833 -25.583,-216.917 0,-324.75m0,324.75c1.583,-87.667 2.583,-202.417 0,-324.75m0,0c-7,-107.833 38.417,-167.167 162.417,-162.417m-162.417,162.417c26.333,-130.917 53.5,-135.333 162.417,-162.417" style="fill:none;fill-rule:nonzero;stroke:#343a40;stroke-width:33.33px;"/></g><g><path d="M1227.13,3926.99c-31.283,-16.255 -61.901,-33.949 -92.061,-52.646c-26.787,-14.139 -53.215,-28.439 -79.221,-42.675c-149.333,-81.75 -299.5,-163 -418.417,-281.5c-59.892,-59.682 -111.613,-130.858 -159.601,-205.634c-102.541,-115.266 -193.36,-239.464 -258.732,-374.616c-31.106,-64.31 -55.022,-131.822 -75.079,-201.378c-15.596,-33.821 -29.689,-67.788 -41.754,-101.872c-54.834,-154.667 -82.917,-303.584 -88.417,-473.834c-0.528,-16.603 -0.73,-33.593 -0.634,-50.89c-7.638,-61.585 -11.912,-122.248 -10.616,-180.026c3.75,-167.334 49.917,-317.084 97.667,-477.084c47.833,-160 104.666,-336.5 189.083,-482.75c68.885,-119.459 144.33,-222.795 245.32,-325.448c92.286,-108.212 191.405,-202.202 310.097,-285.385c52.478,-36.748 110.145,-72.216 170.36,-105.171c124.771,-108.171 325.452,-144.136 486.973,-191.579c163.333,-48 322.917,-87 488.75,-92.583c78.819,-2.653 159.123,1.86 239.725,11.456c36.463,-0.09 72.258,1.508 107.025,5.377c98.718,10.934 187.222,37.649 277.298,71.437c131.771,35.377 265.267,81.115 383.869,142.98c43.91,22.904 86.968,48.695 129.001,76.505c53.773,28.047 105.125,58.253 151.082,90.995c117.831,83.967 251.728,237.105 323.155,321.98c55.498,61.775 106.507,126.372 151.095,194.436c29.942,45.679 57.072,92.754 81.889,141.204c29.137,53.201 55.438,106.943 80.028,157.546c72,148.25 113.333,294.917 143.75,456.25c30.416,161.417 48.25,340.834 38.75,511.917c-9.417,171 -42,350.917 -95.5,514.167c-53.417,163.25 -131,324.583 -225.167,465.25c-44.595,66.675 -94.526,129.587 -148.311,189.472c-95.299,114.154 -208.554,225.317 -326.689,314.778c-95.672,72.509 -199.429,135.122 -307.859,188.527c-34.059,17.443 -67.942,32.94 -101.94,46.97c-0.949,0.408 -1.897,0.816 -2.846,1.223c7.125,-235.083 3.339,-320.956 -2.808,-415.932c5.727,-64.513 -5.305,-112.267 -28.672,-147.923c44.835,-31.409 87.716,-66.058 129.524,-102.634c26.532,-22.527 52.37,-46.17 77.459,-70.622c4.558,-4.297 9.109,-8.607 13.655,-12.93c103.417,-98.416 213.25,-213.833 287.417,-335.083c74.166,-121.333 124.666,-254 157.416,-392.833c26.598,-112.4 39.798,-237.65 40.707,-357.057c3.253,-89.275 -0.463,-179.739 -14.207,-264.193c-7.53,-46.411 -18.424,-92.463 -31.844,-137.917c-8.554,-32.995 -18.474,-65.608 -29.906,-97.75c-20.038,-56.206 -45.523,-112.159 -74.632,-166.834c-0.733,-1.529 -1.466,-3.056 -2.201,-4.583c-61.583,-128 -137.917,-256.833 -230.833,-360.5c-92.917,-103.666 -206.25,-187 -326.5,-261.333c-120.334,-74.25 -256.917,-146.417 -395.25,-184.333c-8.475,-2.318 -17.03,-4.609 -25.656,-6.863c-80.813,-29.397 -163.016,-50.749 -236.844,-45.721l0.269,2.819c-59.355,-4.644 -117.854,-3.374 -172.603,7.015l3.163,0.489c-71.302,3.793 -150.941,10.34 -218.372,21.204c-77.606,8.317 -153.919,19.751 -212.291,35.723c-69.026,18.935 -130.711,44.034 -188.485,73.209c-13.154,5.701 -26.089,11.653 -38.765,17.875c-90.077,44.297 -173.191,102.562 -250.754,167.797c-83.892,64.699 -162.304,137.707 -228.996,218.119c-54.074,65.189 -102.814,137.978 -145.326,213.947c-71.999,120.29 -134.515,255.159 -167.59,389.637c-22.367,90.941 -31.556,187.846 -33.155,283.28c-2.169,62.33 -0.015,125.527 5.439,187.889c8.487,116.986 27.486,231.034 63.355,343.18c20.364,69.703 45.693,137.758 76.944,202.567c48.496,100.438 114.479,198.716 186.643,287.297c70.808,90.801 151.953,175.43 238.524,246.703c40.66,33.502 83.453,65.148 127.856,94.467c-16.806,39.948 -23.563,92.023 -23.823,155.892c-2.091,249.363 18.154,337.533 9.069,438.533Z" style="fill:#343a40;"/><path d="M3487.52,583.333c139.083,87.25 219.916,248.584 304.25,397.917c84.416,149.333 150.666,333.333 202,498c51.416,164.583 98.166,325.167 106.416,489.667c8.25,164.583 -18.833,331.416 -56.833,497.5c-38.083,166.083 -96.083,347.666 -171.583,498.916c-75.584,151.334 -172.25,280.334 -281.667,408.75c-109.5,128.417 -234.667,263.25 -375,361.667c-140.333,98.417 -308.333,173.917 -466.917,229c-158.5,55.167 -317.666,83.75 -484.333,101.833c-166.75,18.084 -347.417,29.584 -516,6.75c-168.5,-22.916 -343.083,-80.583 -495.333,-144.166c-152.25,-63.5 -283.167,-135.167 -418.167,-237c-135.083,-101.834 -284.667,-241.167 -392.083,-374.084c-107.417,-132.916 -186,-269 -252.667,-423.333c-66.583,-154.333 -119.75,-336.167 -147.167,-502.833c-27.333,-166.667 -34,-329.667 -16.916,-497.334c17,-167.666 63.333,-345.083 119.333,-508.583c56,-163.5 127.167,-331.25 216.583,-472.417c89.417,-141.166 197.417,-261.916 320.084,-374.666c122.75,-112.667 266.416,-225.25 416.166,-301.584c149.834,-76.25 317.917,-117.75 482.584,-156.166c164.666,-38.334 332.916,-77.25 505.416,-74.167c172.5,3.083 367.667,44.833 529.584,92.667c161.916,47.833 237.833,32.75 442,194.25c204.083,161.5 623.416,549.083 782.75,774.583c159.333,225.583 204.75,563.25 173.25,578.75m-3206.42,-1209.75c105.167,-129.417 272.417,-197 422.5,-262.833c150.083,-65.834 308.417,-108.667 477.833,-132.167c169.5,-23.5 368,-25 539,-8.833c171.084,16.166 329.75,55.583 487.417,105.916c157.667,50.25 320.917,104 458.75,195.834c137.75,91.916 259.25,227.083 368.083,355.5c108.834,128.5 202.834,268.25 284.75,415.333c81.917,147.083 166.417,299.417 206.834,467.25c40.416,167.917 46.25,371 35.75,540.083c-10.5,169.167 -54.834,312.417 -98.75,474.667c-43.834,162.25 -86.667,348.583 -164.417,498.917c-77.75,150.333 -184.917,283.416 -302.167,402.916c-117.166,119.5 -255.166,224.834 -401.083,314c-145.917,89.167 -306.25,175.917 -474.333,220.834c-168.084,45 -367.25,43.416 -534.25,48.916c-166.917,5.584 -304.417,20.5 -467.417,-15.5c-163.083,-36.083 -354.75,-121.5 -510.667,-200.833c-155.916,-79.333 -300.583,-167.25 -424.833,-275.083c-124.25,-107.834 -228.417,-232.334 -320.75,-372.084c-92.25,-139.75 -169.917,-305.5 -233.167,-466.416c-63.333,-161 -127.416,-332.25 -146.583,-499.417c-19.083,-167.167 2.25,-339.833 31.917,-503.5c29.75,-163.583 85.5,-321 146.25,-478.167c60.75,-157.166 119.833,-333.75 218.25,-464.833c98.416,-131.083 301.916,-267.667 372.25,-321.583c70.416,-53.917 24.333,-29 50.166,-1.917" style="fill:none;fill-rule:nonzero;"/></g><g><path d="M1584.37,613.68c120.333,-65.75 278.75,-72.334 423,-74.5c144.333,-2.25 304.25,24.083 442.833,61.25c138.584,37.166 269.417,89.583 388.584,161.833c119.083,72.25 230.083,166.917 326.083,271.583c95.917,104.584 187.5,228.25 249.583,356.167c62.084,128 99,272.583 122.834,411.583c23.916,139 36.25,281.75 20.5,422.417c-15.75,140.75 -57.25,290.667 -114.917,421.667c-57.667,131 -141,255.75 -231.083,364.416c-90,108.667 -192.75,206.334 -309.334,287.584c-116.583,81.333 -256,157.083 -390.166,200.083c-134.167,43 -273.25,55.833 -415,58c-141.667,2.167 -298.084,-9.167 -435.417,-44.75c-137.417,-35.583 -267.5,-95.417 -388.833,-168.75c-121.25,-73.25 -243.167,-167.75 -338.75,-271.167c-95.667,-103.416 -173.084,-221.916 -234.917,-349.166c-61.75,-127.334 -110.167,-272.667 -135.75,-414.5c-25.667,-141.834 -34.583,-294.25 -18.083,-436.5c16.5,-142.167 61.083,-286.417 117,-416.75c55.916,-130.334 127.333,-255.834 218.583,-365.167c91.25,-109.25 182.333,-205.333 328.917,-290.5c146.666,-85.083 427.333,-182.333 550.833,-220.417c123.417,-38 183.833,-31.25 189.917,-7.75m-118.084,-19.666c127.584,-43.167 285.667,-12.917 427.5,10.166c141.917,23.167 295.084,69.417 423.834,128.417c128.75,59 243.583,134.833 348.666,225.75c105.167,90.917 204.084,198.833 282,319.75c78,120.917 143.75,268.167 185.917,405.75c42.167,137.583 66.167,278.667 67.083,419.667c0.834,141 -19,291.583 -61.75,426.25c-42.75,134.666 -117,264.583 -194.583,381.833c-77.5,117.167 -165.083,226.75 -270.833,321.417c-105.834,94.666 -233.5,186.833 -363.834,246.583c-130.416,59.75 -279.583,95.333 -418.25,111.917c-138.666,16.583 -273.5,7.083 -413.75,-12.417c-140.25,-19.583 -298.416,-49.083 -427.583,-104.833c-129.167,-55.667 -242.25,-136.917 -347.25,-229.5c-105.083,-92.5 -205.917,-205.584 -283.083,-325.667c-77.167,-120.167 -140.75,-255.917 -179.75,-395.333c-39,-139.334 -52.417,-300 -54.167,-441c-1.75,-141 4.167,-269.917 43.5,-404.917c39.417,-135.083 116.25,-283.667 192.583,-405.25c76.334,-121.667 160.25,-233.5 265.417,-324.5c105.167,-91.083 235.333,-164.917 365.667,-221.75c130.333,-56.75 347.416,-101.75 416.333,-119.083c68.917,-17.417 -5,-9.334 -2.833,14.833" style="fill:none;fill-rule:nonzero;"/></g><g><g><path d="M3282.87,2018.81c-401.084,-2.25 -2106.25,125.417 -2411.42,-37.5c-305.083,-163 343.25,-750.417 580.5,-940.417c237.333,-189.916 561.417,-270.916 843.167,-199.5c281.75,71.334 680.083,430.417 847.25,627.75c167.25,197.334 135.416,466.917 155.916,556.167" style="fill:#ff8787;"/><path d="M3276.87,2000.39c-399.084,-7.416 -2076.58,127.417 -2380.5,-31.75c-303.834,-159.166 323.416,-735.666 557.416,-923.166c234,-187.417 561.334,-272.584 846.5,-201.5c285.084,71.166 700.584,435.75 864.25,628.416c163.75,192.584 98.667,437.834 117.917,527.334m9.5,19.916c-400.5,-7.083 -2092.42,118.75 -2399.92,-42.666c-307.5,-161.334 320.167,-734 554.834,-925.5c234.666,-191.584 568.083,-294.584 853.083,-223.834c284.917,70.834 690.917,450.167 856.583,648.667c165.667,198.5 116.167,455 137.334,542.5" style="fill:none;"/></g></g><g><g><path d="M882.521,2095.11c401.334,4.25 2083.92,-116.333 2383.92,43.417c300.083,159.75 -348.083,726.583 -583.583,915.083c-235.417,188.583 -547.417,281.333 -829,216.083c-281.5,-65.166 -699.5,-411.333 -860.334,-607.083c-160.833,-195.75 -83.583,-475.25 -104.5,-567.333" style="fill:#a5d8ff;"/><path d="M864.105,2120.03c396.166,5.583 2085.83,-136.167 2389.75,20.25c303.833,156.5 -333.5,726.583 -566.334,918.5c-232.916,191.916 -549.166,301.833 -831,233.166c-281.75,-68.666 -694.333,-448.25 -859.833,-645.166c-165.5,-196.917 -112.667,-447.084 -133.25,-536.5m16.5,4.666c398.5,7.667 2087.58,-121.083 2392.08,37.667c304.417,158.75 -325.583,727.667 -565.416,914.75c-239.834,187 -586.667,277.083 -873.584,207.5c-286.833,-69.667 -687.75,-429.333 -847.833,-625.167c-160.167,-195.75 -95.5,-457.666 -112.75,-549.583" style="fill:none;"/></g></g><g><path d="M1985.23,766.549c126.25,-26.333 267.75,2.334 393.75,35.167c126,32.917 250.583,90.083 362.167,162.167c111.666,72 224.166,166.5 307.5,270c83.416,103.5 145.166,228.083 192.833,351c47.75,123 85.583,254.5 93.417,386.666c7.833,132.25 -9.917,278.167 -46.25,406.834c-36.334,128.583 -99.5,254.583 -171.584,365c-72.166,110.333 -158.916,212.166 -261.166,297.25c-102.25,85.083 -229.584,166 -352.5,213.083c-122.917,47.167 -252.667,64.333 -385,69.917c-132.334,5.583 -280.667,-3.084 -409.084,-36.417c-128.333,-33.333 -250,-91.917 -361.25,-163.75c-111.25,-71.917 -222.666,-165.833 -306.166,-267.417c-83.5,-101.583 -147.667,-218.666 -194.834,-342.166c-47.083,-123.584 -79.166,-264.75 -88.083,-399.084c-8.833,-134.416 0.75,-277.75 34.917,-407.166c34.166,-129.334 97.583,-258.167 170.083,-369.167c72.417,-111.083 160.583,-213.833 264.667,-297c104.083,-83.25 230.5,-156.5 359.916,-202.25c129.417,-45.75 340.167,-62.167 416.584,-72.417c76.5,-10.25 40.333,-9.333 42.083,10.917m-191.5,-13.667c119.417,-38.25 268.25,-9.583 400.333,15.917c132.167,25.5 275.5,75.167 392.5,137.167c117,61.916 219.084,141.5 309.417,234.583c90.333,93.083 172.75,203.417 232.5,324c59.833,120.583 105.25,266.667 126.333,399.333c21,132.75 21.834,267 0.084,396.75c-21.75,129.834 -65.834,266.084 -130.417,381.917c-64.583,115.833 -161.25,222.75 -257.25,313.083c-95.917,90.25 -200.833,168.167 -318.417,228.5c-117.583,60.25 -254.333,113.334 -386.833,133c-132.5,19.75 -279.417,11.334 -408.333,-14.833c-128.834,-26.25 -247.834,-81.167 -364.834,-142.333c-117.083,-61.25 -244.916,-133.084 -337.333,-224.917c-92.5,-91.917 -161.25,-207.583 -217.583,-326.167c-56.334,-118.583 -101.167,-253.416 -120.417,-385.416c-19.333,-132 -19,-272.834 4.583,-406.667c23.584,-133.917 76.834,-280.25 136.917,-396.583c60.083,-116.334 129.167,-210.334 223.583,-301.584c94.417,-91.333 224.417,-185.333 343,-246.083c118.584,-60.75 305.834,-104.667 368.5,-118.417c62.584,-13.833 3.084,12.584 7.334,35.834" style="fill:none;fill-rule:nonzero;stroke:#1e1e1e;stroke-width:58.33px;"/></g><g><g><path d="M1117.27,1996.8c53.167,-1.917 235.667,107.583 322.834,-3.584c87.166,-111.083 108.583,-773.666 200.166,-663.333c91.584,110.417 230.334,1336.08 349.334,1325.58c119.083,-10.5 259.333,-1317.58 364.75,-1388.67c105.416,-71.167 168.25,801.166 267.75,961.916c99.5,160.75 272.5,3.584 329.333,2.5m-1820.25,-243.666c56.5,-1.25 241.833,128.25 326.5,16.083c84.583,-112.083 92,-799.083 181.167,-689c89.083,110.083 231.75,1357.42 353.583,1349.67c121.75,-7.667 275.083,-1321.58 377.333,-1395.83c102.25,-74.25 138.667,791.584 236.084,950.167c97.333,158.583 289.416,-3.167 348.166,1.333" style="fill:none;fill-rule:nonzero;stroke:#1e1e1e;stroke-width:75px;"/></g></g></g></svg>