<?xml version="1.0" encoding="UTF-8" standalone="no"?><!DOCTYPE svg PUBLIC "-//W3C//DTD SVG 1.1//EN" "http://www.w3.org/Graphics/SVG/1.1/DTD/svg11.dtd"><svg width="100%" height="100%" viewBox="0 0 15100 4392" version="1.1" xmlns="http://www.w3.org/2000/svg" xmlns:xlink="http://www.w3.org/1999/xlink" xml:space="preserve" xmlns:serif="http://www.serif.com/" style="fill-rule:evenodd;clip-rule:evenodd;stroke-linejoin:round;stroke-miterlimit:2;"><rect id="Light" x="0" y="0" width="15098.6" height="4389.21" style="fill:none;"/><clipPath id="_clip1"><rect id="Light1" serif:id="Light" x="0" y="0" width="15098.6" height="4389.21"/></clipPath><g clip-path="url(#_clip1)"><g><text x="5396.43px" y="3127.29px" style="font-family:'Excalifont-Regular', 'Excalifont';font-size:2407.91px;fill:#343a40;stroke:#343a40;stroke-width:4.17px;">OMEGA</text></g><g><path d="M3016.29,3377.45c380.334,43.25 756.084,36.5 980.75,0c135.25,16.917 174.417,95.917 162.417,162.417c20,43.416 -41.333,109.583 0,324.75c-22.417,125.416 -62.833,185.5 -162.417,162.333c-214,-49.917 -418,-24.833 -980.75,0c-154.25,-44.167 -180.083,-17.917 -162.416,-162.333c47.333,-99.334 -35.334,-259.417 -0,-324.75c-25.167,-73.75 10.5,-173.75 162.416,-162.417" style="fill:#343a40;fill-rule:nonzero;stroke:#343a40;stroke-width:4.17px;"/><path d="M3016.29,3377.45c335.167,24.417 603.167,34.833 980.75,0m-980.75,0c381.5,-4.667 738.667,-6.583 980.75,0m0,0c93.084,31.583 189.167,58.583 162.417,162.417m-162.417,-162.417c105.917,-20.583 151,72.167 162.417,162.417m0,-0c18.833,59.25 3.417,173.166 0,324.75m0,-324.75c-14.667,73.333 9.333,166.166 0,324.75m0,-0c-29.5,106.916 -59.583,187.333 -162.417,162.333m162.417,-162.333c-4.833,104.166 -48.25,187.416 -162.417,162.333m0,0c-415.583,-7.667 -780.416,-13.25 -980.75,0m980.75,0c-234.5,2.25 -436.416,20.667 -980.75,0m0,0c-132.833,9.917 -157.166,-63.583 -162.416,-162.333m162.416,162.333c-89.5,12.417 -180.833,-75.583 -162.416,-162.333m-0,-0c24.25,-101.667 5.416,-175.334 -0,-324.75m-0,324.75c7.25,-82.5 7.083,-171.584 -0,-324.75m-0,-0c-28.834,-115.334 54.583,-178.084 162.416,-162.417m-162.416,162.417c-5.417,-82 31.5,-163 162.416,-162.417" style="fill:none;fill-rule:nonzero;stroke:#343a40;stroke-width:33.33px;stroke-linecap:round;stroke-linejoin:miter;stroke-miterlimit:4;"/></g><g><path d="M245.75,3377.45c227.5,19 419,17.083 980.75,0c125.167,12 204.167,8.5 162.417,162.417c-16.167,43.166 -15.584,136.666 -0,324.75c17.166,99.5 -31,127.333 -162.417,162.333c-251.917,27.167 -452,-42 -980.75,0c-152.417,-17.667 -126.167,-25.417 -162.417,-162.333c11.167,-119.25 -31.583,-182.667 0,-324.75c34.5,-151.917 42.75,-145.417 162.417,-162.417" style="fill:#343a40;fill-rule:nonzero;"/><path d="M245.75,3377.45c239.75,-23.083 475,7.417 980.75,0m-980.75,0c219.333,-15 450.833,-20.917 980.75,0m0,0c139.833,26.833 166.917,52.083 162.417,162.417m-162.417,-162.417c87.667,-11.417 180.417,44.083 162.417,162.417m-0,-0c-29.75,87.166 -4.75,137.5 -0,324.75m-0,-324.75c0.666,94.416 18.583,149.25 -0,324.75m-0,-0c-1.334,102.75 -29.167,158.166 -162.417,162.333m162.417,-162.333c-4.084,114.166 -29.084,199.25 -162.417,162.333m0,0c-318.417,-18.75 -627.917,-38.833 -980.75,0m980.75,0c-269.5,6.917 -510.583,-21.833 -980.75,0m0,0c-98.333,5.25 -171.833,-37.75 -162.417,-162.333m162.417,162.333c-95.917,-18.417 -183.917,-79.833 -162.417,-162.333m0,-0c-27.583,-97.834 -25.583,-216.917 0,-324.75m0,324.75c1.584,-87.667 2.584,-202.417 0,-324.75m0,-0c-7,-107.834 38.417,-167.167 162.417,-162.417m-162.417,162.417c26.334,-130.917 53.5,-135.334 162.417,-162.417" style="fill:none;fill-rule:nonzero;stroke:#343a40;stroke-width:33.33px;stroke-linecap:round;stroke-linejoin:miter;stroke-miterlimit:4;"/></g><g><path d="M1297.97,3993.66c-31.283,-16.256 -61.902,-33.949 -92.062,-52.647c-26.786,-14.138 -53.215,-28.438 -79.221,-42.675c-149.333,-81.75 -299.5,-163 -418.416,-281.5c-59.892,-59.682 -111.613,-130.858 -159.602,-205.633c-102.541,-115.266 -193.36,-239.464 -258.732,-374.617c-31.106,-64.309 -55.021,-131.821 -75.079,-201.377c-15.596,-33.822 -29.689,-67.788 -41.754,-101.873c-54.833,-154.666 -82.917,-303.583 -88.417,-473.833c-0.528,-16.604 -0.73,-33.593 -0.634,-50.891c-7.637,-61.585 -11.911,-122.247 -10.616,-180.026c3.75,-167.333 49.917,-317.083 97.667,-477.083c47.833,-160 104.667,-336.5 189.083,-482.75c68.885,-119.459 144.331,-222.795 245.32,-325.448c92.287,-108.212 191.405,-202.202 310.097,-285.385c52.478,-36.748 110.145,-72.216 170.361,-105.171c124.771,-108.172 325.451,-144.136 486.972,-191.579c163.334,-48 322.917,-87 488.75,-92.584c78.819,-2.652 159.123,1.861 239.725,11.457c36.463,-0.09 72.258,1.508 107.025,5.377c98.719,10.934 187.222,37.649 277.298,71.436c131.772,35.378 265.267,81.115 383.869,142.98c43.91,22.905 86.968,48.696 129.002,76.505c53.772,28.047 105.124,58.254 151.081,90.995c117.832,83.967 251.728,237.105 323.156,321.981c55.497,61.775 106.506,126.371 151.094,194.436c29.942,45.679 57.073,92.754 81.889,141.204c29.137,53.201 55.438,106.943 80.028,157.546c72,148.25 113.333,294.917 143.75,456.25c30.417,161.417 48.25,340.833 38.75,511.917c-9.417,171 -42,350.916 -95.5,514.166c-53.417,163.25 -131,324.584 -225.167,465.25c-44.595,66.675 -94.526,129.587 -148.31,189.473c-95.3,114.153 -208.555,225.317 -326.69,314.777c-95.672,72.509 -199.429,135.122 -307.859,188.527c-34.058,17.444 -67.941,32.941 -101.94,46.971c-0.948,0.408 -1.897,0.815 -2.846,1.222c7.126,-235.082 3.339,-320.955 -2.808,-415.931c5.727,-64.514 -5.305,-112.267 -28.672,-147.924c44.835,-31.408 87.716,-66.058 129.524,-102.633c26.532,-22.527 52.371,-46.17 77.459,-70.622c4.558,-4.297 9.109,-8.608 13.655,-12.93c103.417,-98.417 213.25,-213.833 287.417,-335.083c74.167,-121.334 124.667,-254 157.417,-392.834c26.597,-112.399 39.797,-237.65 40.706,-357.057c3.253,-89.274 -0.463,-179.739 -14.206,-264.193c-7.53,-46.411 -18.425,-92.462 -31.845,-137.917c-8.554,-32.994 -18.474,-65.607 -29.905,-97.749c-20.039,-56.206 -45.524,-112.159 -74.633,-166.834c-0.732,-1.529 -1.466,-3.057 -2.201,-4.583c-61.583,-128 -137.916,-256.833 -230.833,-360.5c-92.917,-103.667 -206.25,-187 -326.5,-261.333c-120.333,-74.25 -256.917,-146.417 -395.25,-184.334c-8.474,-2.317 -17.03,-4.609 -25.656,-6.862c-80.812,-29.397 -163.016,-50.75 -236.844,-45.721l0.269,2.819c-59.355,-4.644 -117.853,-3.374 -172.602,7.014l3.162,0.49c-71.302,3.793 -150.941,10.34 -218.372,21.204c-77.606,8.316 -153.918,19.751 -212.29,35.723c-69.026,18.935 -130.711,44.033 -188.486,73.208c-13.153,5.701 -26.088,11.654 -38.764,17.875c-90.077,44.298 -173.192,102.562 -250.754,167.798c-83.893,64.699 -162.304,137.707 -228.996,218.119c-54.075,65.189 -102.814,137.978 -145.327,213.947c-71.999,120.29 -134.515,255.158 -167.59,389.636c-22.367,90.941 -31.556,187.846 -33.154,283.281c-2.17,62.33 -0.015,125.526 5.439,187.889c8.486,116.986 27.486,231.034 63.355,343.179c20.364,69.704 45.693,137.759 76.943,202.568c48.497,100.438 114.48,198.716 186.644,287.297c70.808,90.801 151.953,175.429 238.523,246.703c40.661,33.502 83.454,65.148 127.856,94.467c-16.806,39.948 -23.563,92.022 -23.822,155.892c-2.092,249.363 18.153,337.533 9.069,438.533Z" style="fill:#343a40;"/><path d="M3558.35,650c139.083,87.25 219.917,248.583 304.25,397.917c84.417,149.333 150.667,333.333 202,498c51.417,164.583 98.167,325.166 106.417,489.666c8.25,164.584 -18.834,331.417 -56.834,497.5c-38.083,166.084 -96.083,347.667 -171.583,498.917c-75.583,151.333 -172.25,280.333 -281.667,408.75c-109.5,128.417 -234.666,263.25 -375,361.667c-140.333,98.416 -308.333,173.916 -466.916,229c-158.5,55.166 -317.667,83.75 -484.334,101.833c-166.75,18.083 -347.416,29.583 -516,6.75c-168.5,-22.917 -343.083,-80.583 -495.333,-144.167c-152.25,-63.5 -283.167,-135.166 -418.167,-237c-135.083,-101.833 -284.666,-241.166 -392.083,-374.083c-107.417,-132.917 -186,-269 -252.667,-423.333c-66.583,-154.334 -119.75,-336.167 -147.166,-502.834c-27.334,-166.666 -34,-329.666 -16.917,-497.333c17,-167.667 63.333,-345.083 119.333,-508.583c56,-163.5 127.167,-331.25 216.584,-472.417c89.416,-141.167 197.416,-261.917 320.083,-374.667c122.75,-112.666 266.417,-225.25 416.167,-301.583c149.833,-76.25 317.916,-117.75 482.583,-156.167c164.667,-38.333 332.917,-77.25 505.417,-74.166c172.5,3.083 367.666,44.833 529.583,92.666c161.917,47.834 237.833,32.75 442,194.25c204.083,161.5 623.417,549.084 782.75,774.584c159.333,225.583 204.75,563.25 173.25,578.75m-3206.42,-1209.75c105.167,-129.417 272.417,-197 422.5,-262.834c150.084,-65.833 308.417,-108.666 477.834,-132.166c169.5,-23.5 368,-25 539,-8.834c171.083,16.167 329.75,55.584 487.416,105.917c157.667,50.25 320.917,104 458.75,195.833c137.75,91.917 259.25,227.084 368.084,355.5c108.833,128.5 202.833,268.25 284.75,415.334c81.916,147.083 166.416,299.416 206.833,467.25c40.417,167.916 46.25,371 35.75,540.083c-10.5,169.167 -54.833,312.417 -98.75,474.667c-43.833,162.25 -86.667,348.583 -164.417,498.916c-77.75,150.334 -184.916,283.417 -302.166,402.917c-117.167,119.5 -255.167,224.833 -401.084,314c-145.916,89.167 -306.25,175.917 -474.333,220.833c-168.083,45 -367.25,43.417 -534.25,48.917c-166.917,5.583 -304.417,20.5 -467.417,-15.5c-163.083,-36.083 -354.75,-121.5 -510.666,-200.833c-155.917,-79.334 -300.584,-167.25 -424.834,-275.084c-124.25,-107.833 -228.416,-232.333 -320.75,-372.083c-92.25,-139.75 -169.916,-305.5 -233.166,-466.417c-63.334,-161 -127.417,-332.25 -146.584,-499.416c-19.083,-167.167 2.25,-339.834 31.917,-503.5c29.75,-163.584 85.5,-321 146.25,-478.167c60.75,-157.167 119.833,-333.75 218.25,-464.833c98.417,-131.084 301.917,-267.667 372.25,-321.584c70.417,-53.916 24.333,-29 50.167,-1.916" style="fill:none;fill-rule:nonzero;"/></g><g><path d="M1655.2,680.346c120.334,-65.75 278.75,-72.333 423,-74.5c144.334,-2.25 304.25,24.084 442.834,61.25c138.583,37.167 269.416,89.584 388.583,161.834c119.083,72.25 230.083,166.916 326.083,271.583c95.917,104.583 187.5,228.25 249.584,356.167c62.083,128 99,272.583 122.833,411.583c23.917,139 36.25,281.75 20.5,422.417c-15.75,140.75 -57.25,290.666 -114.917,421.666c-57.666,131 -141,255.75 -231.083,364.417c-90,108.667 -192.75,206.333 -309.333,287.583c-116.584,81.334 -256,157.084 -390.167,200.084c-134.167,43 -273.25,55.833 -415,58c-141.667,2.166 -298.083,-9.167 -435.417,-44.75c-137.416,-35.584 -267.5,-95.417 -388.833,-168.75c-121.25,-73.25 -243.167,-167.75 -338.75,-271.167c-95.667,-103.417 -173.083,-221.917 -234.917,-349.167c-61.75,-127.333 -110.166,-272.666 -135.75,-414.5c-25.666,-141.833 -34.583,-294.25 -18.083,-436.5c16.5,-142.166 61.083,-286.416 117,-416.75c55.917,-130.333 127.333,-255.833 218.583,-365.166c91.25,-109.25 182.334,-205.334 328.917,-290.5c146.667,-85.084 427.333,-182.334 550.833,-220.417c123.417,-38 183.834,-31.25 189.917,-7.75m-118.083,-19.667c127.583,-43.166 285.666,-12.916 427.5,10.167c141.916,23.167 295.083,69.417 423.833,128.417c128.75,59 243.583,134.833 348.667,225.75c105.166,90.916 204.083,198.833 282,319.75c78,120.916 143.75,268.166 185.916,405.75c42.167,137.583 66.167,278.666 67.084,419.666c0.833,141 -19,291.584 -61.75,426.25c-42.75,134.667 -117,264.584 -194.584,381.834c-77.5,117.166 -165.083,226.75 -270.833,321.416c-105.833,94.667 -233.5,186.834 -363.833,246.584c-130.417,59.75 -279.584,95.333 -418.25,111.916c-138.667,16.584 -273.5,7.084 -413.75,-12.416c-140.25,-19.584 -298.417,-49.084 -427.584,-104.834c-129.166,-55.666 -242.25,-136.916 -347.25,-229.5c-105.083,-92.5 -205.916,-205.583 -283.083,-325.666c-77.167,-120.167 -140.75,-255.917 -179.75,-395.334c-39,-139.333 -52.417,-300 -54.167,-441c-1.75,-141 4.167,-269.916 43.5,-404.916c39.417,-135.084 116.25,-283.667 192.584,-405.25c76.333,-121.667 160.25,-233.5 265.416,-324.5c105.167,-91.084 235.334,-164.917 365.667,-221.75c130.333,-56.75 347.417,-101.75 416.333,-119.084c68.917,-17.416 -5,-9.333 -2.833,14.834" style="fill:none;fill-rule:nonzero;"/></g><g><g><path d="M3353.71,2085.48c-401.083,-2.25 -2106.25,125.416 -2411.42,-37.5c-305.083,-163 343.25,-750.417 580.5,-940.417c237.334,-189.917 561.417,-270.917 843.167,-199.5c281.75,71.333 680.083,430.417 847.25,627.75c167.25,197.333 135.417,466.917 155.917,556.167" style="fill:#ff8787;"/><path d="M3347.71,2067.06c-399.083,-7.417 -2076.58,127.417 -2380.5,-31.75c-303.833,-159.167 323.417,-735.667 557.417,-923.167c234,-187.416 561.333,-272.583 846.5,-201.5c285.083,71.167 700.583,435.75 864.25,628.417c163.75,192.583 98.666,437.833 117.916,527.333m9.5,19.917c-400.5,-7.083 -2092.42,118.75 -2399.92,-42.667c-307.5,-161.333 320.166,-734 554.833,-925.5c234.667,-191.583 568.083,-294.583 853.083,-223.833c284.917,70.833 690.917,450.167 856.584,648.667c165.666,198.5 116.166,455 137.333,542.5" style="fill:none;"/></g></g><g><g><path d="M953.355,2161.78c401.333,4.25 2083.92,-116.334 2383.92,43.416c300.084,159.75 -348.083,726.584 -583.583,915.084c-235.417,188.583 -547.417,281.333 -829,216.083c-281.5,-65.167 -699.5,-411.333 -860.333,-607.083c-160.834,-195.75 -83.584,-475.25 -104.5,-567.334" style="fill:#a5d8ff;"/><path d="M934.938,2186.7c396.167,5.584 2085.83,-136.166 2389.75,20.25c303.833,156.5 -333.5,726.584 -566.333,918.5c-232.917,191.917 -549.167,301.834 -831,233.167c-281.75,-68.667 -694.334,-448.25 -859.834,-645.167c-165.5,-196.916 -112.666,-447.083 -133.25,-536.5m16.5,4.667c398.5,7.667 2087.58,-121.083 2392.08,37.667c304.416,158.75 -325.584,727.666 -565.417,914.75c-239.833,187 -586.667,277.083 -873.583,207.5c-286.834,-69.667 -687.75,-429.334 -847.834,-625.167c-160.166,-195.75 -95.5,-457.667 -112.75,-549.583" style="fill:none;"/></g></g><g><path d="M2056.06,833.216c126.25,-26.333 267.75,2.333 393.75,35.167c126,32.916 250.584,90.083 362.167,162.166c111.667,72 224.167,166.5 307.5,270c83.417,103.5 145.167,228.084 192.833,351c47.75,123 85.584,254.5 93.417,386.667c7.833,132.25 -9.917,278.167 -46.25,406.833c-36.333,128.584 -99.5,254.584 -171.583,365c-72.167,110.334 -158.917,212.167 -261.167,297.25c-102.25,85.084 -229.583,166 -352.5,213.084c-122.917,47.166 -252.667,64.333 -385,69.916c-132.333,5.584 -280.667,-3.083 -409.083,-36.416c-128.334,-33.334 -250,-91.917 -361.25,-163.75c-111.25,-71.917 -222.667,-165.834 -306.167,-267.417c-83.5,-101.583 -147.667,-218.667 -194.833,-342.167c-47.084,-123.583 -79.167,-264.75 -88.084,-399.083c-8.833,-134.417 0.75,-277.75 34.917,-407.167c34.167,-129.333 97.583,-258.166 170.083,-369.166c72.417,-111.084 160.584,-213.834 264.667,-297c104.083,-83.25 230.5,-156.5 359.917,-202.25c129.416,-45.75 340.166,-62.167 416.583,-72.417c76.5,-10.25 40.333,-9.333 42.083,10.917m-191.5,-13.667c119.417,-38.25 268.25,-9.583 400.334,15.917c132.166,25.5 275.5,75.166 392.5,137.166c117,61.917 219.083,141.5 309.416,234.584c90.334,93.083 172.75,203.416 232.5,324c59.834,120.583 105.25,266.666 126.334,399.333c21,132.75 21.833,267 0.083,396.75c-21.75,129.833 -65.833,266.083 -130.417,381.917c-64.583,115.833 -161.25,222.75 -257.25,313.083c-95.916,90.25 -200.833,168.167 -318.416,228.5c-117.584,60.25 -254.334,113.333 -386.834,133c-132.5,19.75 -279.416,11.333 -408.333,-14.833c-128.833,-26.25 -247.833,-81.167 -364.833,-142.334c-117.084,-61.25 -244.917,-133.083 -337.334,-224.916c-92.5,-91.917 -161.25,-207.584 -217.583,-326.167c-56.333,-118.583 -101.167,-253.417 -120.417,-385.417c-19.333,-132 -19,-272.833 4.584,-406.666c23.583,-133.917 76.833,-280.25 136.916,-396.584c60.084,-116.333 129.167,-210.333 223.584,-301.583c94.416,-91.333 224.416,-185.333 343,-246.083c118.583,-60.75 305.833,-104.667 368.5,-118.417c62.583,-13.833 3.083,12.583 7.333,35.833" style="fill:none;fill-rule:nonzero;stroke:#343a40;stroke-width:58.33px;stroke-linecap:round;stroke-linejoin:miter;stroke-miterlimit:4;"/></g><g><g><path d="M1188.11,2063.46c53.166,-1.916 235.666,107.584 322.833,-3.583c87.167,-111.083 108.583,-773.667 200.167,-663.333c91.583,110.416 230.333,1336.08 349.333,1325.58c119.083,-10.5 259.333,-1317.58 364.75,-1388.67c105.417,-71.166 168.25,801.167 267.75,961.917c99.5,160.75 272.5,3.583 329.333,2.5m-1820.25,-243.667c56.5,-1.25 241.834,128.25 326.5,16.084c84.584,-112.084 92,-799.084 181.167,-689c89.083,110.083 231.75,1357.42 353.583,1349.67c121.75,-7.666 275.084,-1321.58 377.334,-1395.83c102.25,-74.25 138.666,791.583 236.083,950.167c97.333,158.583 289.417,-3.167 348.167,1.333" style="fill:none;fill-rule:nonzero;stroke:#343a40;stroke-width:75px;stroke-linecap:round;stroke-linejoin:miter;stroke-miterlimit:4;"/></g></g><g><path d="M9324.91,2414.74c0,0 9.417,-2.888 28.25,-8.666c18.889,-5.778 38.973,-13.834 60.25,-24.167c21.223,-10.333 43.973,-22.222 68.25,-35.667c24.278,-13.444 48.417,-24.5 72.417,-33.166c24,-8.722 47.333,-16.611 70,-23.667c22.667,-7 47.333,-11.222 74,-12.667c26.667,-1.388 56.222,-5.416 88.667,-12.083c32.444,-6.667 61,-13.167 85.666,-19.5c24.723,-6.278 50.917,-12.555 78.584,-18.833c27.722,-6.278 53.972,-10.834 78.75,-13.667c24.778,-2.833 49.111,-4.889 73,-6.167c23.889,-1.277 48.361,-2.111 73.416,-2.5c25.112,-0.388 51.528,-4.666 79.25,-12.833c27.778,-8.167 53.778,-14.055 78,-17.667c24.278,-3.611 49.25,-6.944 74.917,-10c25.722,-3.055 52.139,-4.666 79.25,-4.833c27.111,-0.111 47.528,0.945 61.25,3.167c13.667,2.222 26.639,6.583 38.917,13.083c12.222,6.5 23.111,14.778 32.666,24.833c9.556,10.112 17.223,21.445 23,34c5.834,12.612 9.5,25.806 11,39.584c1.5,13.778 0.75,27.444 -2.25,41c-2.944,13.555 -8,26.278 -15.166,38.166c-7.167,11.834 -16.028,22.25 -26.584,31.25c-10.555,9 -22.277,16.056 -35.166,21.167c-12.889,5.111 -26.25,8.056 -40.084,8.833c-13.833,0.723 -27.444,-0.75 -40.833,-4.416c-13.389,-3.722 -25.805,-9.472 -37.25,-17.25c-11.5,-7.778 -21.444,-17.195 -29.833,-28.25c-8.389,-11.056 -14.778,-23.167 -19.167,-36.334c-4.444,-13.111 -6.667,-26.611 -6.667,-40.5c0,-13.833 2.223,-27.333 6.667,-40.5c4.389,-13.111 10.806,-25.194 19.25,-36.25c8.389,-11.055 18.306,-20.472 29.75,-28.25c11.5,-7.777 23.917,-13.527 37.25,-17.25c13.389,-3.666 27,-5.138 40.833,-4.416c13.834,0.778 27.195,3.722 40.084,8.833c12.889,5.167 24.611,12.222 35.166,21.167c10.612,9 19.473,19.444 26.584,31.333c7.166,11.889 12.25,24.611 15.25,38.167c2.944,13.5 3.666,27.166 2.166,41c-1.5,13.778 -5.166,26.944 -11,39.5c-5.833,12.611 -13.5,23.944 -23,34c-9.555,10.055 -20.472,18.333 -32.75,24.833c-12.222,6.5 -25.194,10.861 -38.916,13.083c-13.667,2.223 -20.5,3.334 -20.5,3.334c0.055,-0 -12.722,-2.334 -38.334,-7c-25.611,-4.722 -51.861,-3.584 -78.75,3.416c-26.888,6.945 -29.944,3.75 -9.166,-9.583c20.722,-13.278 14.194,-12 -19.584,3.833c-33.777,15.834 -40,16.25 -18.666,1.25c21.333,-15 20.25,-14.388 -3.25,1.834c-23.445,16.222 -56.528,27.694 -99.25,34.416c-42.722,6.667 -76.806,8.417 -102.25,5.25c-25.445,-3.166 -50.445,-4.388 -75,-3.666c-24.5,0.722 -50.834,3.528 -79,8.416c-28.222,4.889 -60.861,10.973 -97.917,18.25c-37.111,7.334 -72.305,13.834 -105.583,19.5c-33.222,5.612 -62.222,6.695 -87,3.25c-24.778,-3.5 -50.084,-4.527 -75.917,-3.083c-25.833,1.445 -54.5,9.695 -86,24.75c-31.5,15.167 -60.889,26.972 -88.167,35.417c-27.333,8.444 -50.722,14.583 -70.166,18.416c-19.445,3.778 -32.472,6.084 -39.084,6.917c-6.611,0.833 -13.222,0.861 -19.833,0.083c-6.611,-0.777 -13.055,-2.361 -19.333,-4.75c-6.222,-2.333 -12.084,-5.388 -17.584,-9.166c-5.5,-3.778 -10.472,-8.139 -14.916,-13.084c-4.5,-5 -8.306,-10.444 -11.417,-16.333c-3.111,-5.944 -5.472,-12.139 -7.083,-18.583c-1.611,-6.5 -2.445,-13.084 -2.5,-19.75c-0,-6.667 0.778,-13.222 2.333,-19.667c1.611,-6.5 3.945,-12.722 7,-18.667c3.111,-5.888 6.861,-11.361 11.25,-16.416c4.445,-5 9.389,-9.417 14.833,-13.25c5.5,-3.778 11.362,-6.861 17.584,-9.25c6.278,-2.389 9.416,-3.584 9.416,-3.584Z" style="fill:#2f9e44;fill-rule:nonzero;"/></g><g><path d="M9417.25,2567.16c-0,0 1.333,5.5 4,16.5c2.611,11 2.722,35.389 0.333,73.167c-2.389,37.722 -1.611,68.889 2.333,93.5c3.889,24.611 6.667,49.472 8.334,74.583c1.666,25.167 3.222,50.389 4.666,75.667c1.445,25.278 -0.805,51.25 -6.75,77.916c-5.888,26.667 -15.611,24.167 -29.166,-7.5c-13.5,-31.666 -33.889,-49.083 -61.167,-52.25c-27.278,-3.222 -28.194,-7.972 -2.75,-14.25c25.5,-6.333 50.056,-11.277 73.667,-14.833c23.611,-3.611 47.166,-7.083 70.666,-10.417c23.556,-3.333 49.056,-8.083 76.5,-14.25c27.445,-6.166 53.806,-12.111 79.084,-17.833c25.278,-5.778 49.778,-10.444 73.5,-14c23.722,-3.5 47.444,-8 71.166,-13.5c23.778,-5.5 47.556,-8.583 71.334,-9.25c23.833,-0.611 48.25,-1.028 73.25,-1.25c25.055,-0.222 49.222,-3 72.5,-8.333c23.333,-5.334 48.722,-10.834 76.166,-16.5c27.389,-5.667 53.223,-8.834 77.5,-9.5c24.223,-0.611 48.834,-0.972 73.834,-1.084c25.055,-0.111 50.083,-0.222 75.083,-0.333c25,-0.055 50,-0.139 75,-0.25c25,-0.055 50,-0.139 75,-0.25c25,-0.055 45.472,-0.083 61.417,-0.083c15.944,-0.056 30.861,1.055 44.75,3.333c13.944,2.278 27.139,6.722 39.583,13.333c12.5,6.612 23.583,15.056 33.25,25.334c9.722,10.222 17.556,21.75 23.5,34.583c5.945,12.778 9.667,26.195 11.167,40.25c1.5,14.056 0.75,27.972 -2.25,41.75c-3.056,13.778 -8.222,26.695 -15.5,38.75c-7.278,12.111 -16.278,22.75 -27,31.917c-10.778,9.111 -22.722,16.278 -35.834,21.5c-13.111,5.222 -26.722,8.222 -40.833,9c-14.055,0.778 -27.889,-0.722 -41.5,-4.5c-13.611,-3.778 -26.25,-9.639 -37.917,-17.584c-11.666,-7.944 -21.777,-17.527 -30.333,-28.75c-8.555,-11.222 -15.083,-23.527 -19.583,-36.916c-4.5,-13.389 -6.75,-27.139 -6.75,-41.25c-0,-14.111 2.25,-27.861 6.75,-41.25c4.5,-13.334 11.028,-25.611 19.583,-36.834c8.556,-11.277 18.667,-20.861 30.333,-28.75c11.667,-7.944 24.306,-13.805 37.917,-17.583c13.611,-3.778 27.472,-5.278 41.583,-4.5c14.056,0.778 27.639,3.778 40.75,9c13.112,5.222 25.056,12.417 35.834,21.583c10.778,9.112 19.778,19.723 27,31.834c7.278,12.111 12.444,25.055 15.5,38.833c3,13.778 3.75,27.667 2.25,41.667c-1.556,14.055 -5.278,27.5 -11.167,40.333c-5.944,12.778 -13.778,24.278 -23.5,34.5c-9.722,10.278 -20.805,18.722 -33.25,25.333c-12.5,6.612 -25.694,11.056 -39.583,13.334c-13.945,2.278 -20.917,3.416 -20.917,3.416c0.056,0 -14.833,-0.027 -44.667,-0.083c-29.833,-0.055 -57.25,-0.139 -82.25,-0.25c-25,-0.055 -50,-0.139 -75,-0.25c-25,-0.111 -50,-0.222 -75,-0.333c-25,-0.056 -50.166,-0.222 -75.5,-0.5c-25.333,-0.222 -27.416,-7.111 -6.25,-20.667c21.167,-13.5 12.417,-12.972 -26.25,1.583c-38.722,14.5 -76.916,26.278 -114.583,35.334c-37.611,9.055 -70.333,13.861 -98.167,14.416c-27.833,0.5 -53.694,-0.25 -77.583,-2.25c-23.944,-1.944 -56.139,1.75 -96.583,11.084c-40.5,9.389 -50.611,7.555 -30.334,-5.5c20.223,-13.056 19.445,-13.861 -2.333,-2.417c-21.778,11.389 -45.305,19.639 -70.583,24.75c-25.278,5.167 -59.028,11.889 -101.25,20.167c-42.278,8.333 -77.528,11.639 -105.75,9.916c-28.222,-1.666 -57.445,0.473 -87.667,6.417c-30.111,6 -56.75,5.167 -79.917,-2.5c-23.111,-7.667 -43.722,-30.083 -61.833,-67.25c-18.111,-37.167 -23.805,-67.611 -17.083,-91.333c6.722,-23.722 10.833,-48.417 12.333,-74.084c1.5,-25.666 3.195,-51 5.083,-76c1.889,-25 5.223,-50 10,-75c4.723,-25 9.639,-50.527 14.75,-76.583c5.056,-26 7.306,-44.667 6.75,-56c-0.555,-11.333 -0.916,-20.278 -1.083,-26.833c-0.111,-6.5 0.528,-12.945 1.917,-19.334c1.444,-6.388 3.639,-12.5 6.583,-18.333c2.889,-5.889 6.472,-11.333 10.75,-16.333c4.222,-4.945 8.972,-9.334 14.25,-13.167c5.333,-3.833 11.028,-7 17.083,-9.5c6.112,-2.444 12.389,-4.111 18.834,-5c6.5,-0.944 12.972,-1.083 19.416,-0.417c6.5,0.667 12.862,2.084 19.084,4.25c6.166,2.167 11.972,5.056 17.416,8.667c5.445,3.611 10.389,7.833 14.834,12.667c4.444,4.778 8.25,10.055 11.416,15.833c3.167,5.722 5.612,11.75 7.334,18.083c1.666,6.278 2.5,9.417 2.5,9.417Z" style="fill:#2f9e44;fill-rule:nonzero;"/></g><g><path d="M9865.58,2505.74c0,0 -6.194,2.917 -18.583,8.75c-12.334,5.834 -31.445,14.889 -57.334,27.167c-25.888,12.333 -50.944,22.639 -75.166,30.917c-24.167,8.278 -49.028,14.889 -74.584,19.833c-25.611,5 -50.361,9.556 -74.25,13.667c-23.888,4.111 -53.25,9.833 -88.083,17.166c-34.833,7.278 -58.361,10.223 -70.583,8.834c-12.222,-1.445 -23.889,-4.806 -35,-10.084c-11.111,-5.222 -21.111,-12.111 -30,-20.666c-8.834,-8.5 -16.084,-18.195 -21.75,-29.084c-5.722,-10.944 -9.528,-22.5 -11.417,-34.666c-1.889,-12.111 -1.778,-24.25 0.333,-36.417c2.056,-12.111 6.028,-23.555 11.917,-34.333c5.833,-10.834 13.25,-20.445 22.25,-28.834c9,-8.333 19.083,-15.027 30.25,-20.083c11.222,-5.111 22.945,-8.278 35.167,-9.5c12.278,-1.222 24.389,-0.472 36.333,2.25c12,2.722 23.25,7.306 33.75,13.75c10.5,6.389 19.695,14.306 27.583,23.75c7.889,9.389 14.056,19.833 18.5,31.333c4.445,11.445 6.945,23.306 7.5,35.584c0.612,12.278 -0.777,24.333 -4.166,36.166c-3.389,11.834 -8.584,22.806 -15.584,32.917c-7,10.111 -15.416,18.861 -25.25,26.25c-9.833,7.389 -20.611,13 -32.333,16.833c-11.667,3.834 -23.639,5.695 -35.917,5.584c-12.333,-0.111 -24.305,-2.167 -35.916,-6.167c-11.611,-4.055 -22.278,-9.833 -32,-17.333c-9.778,-7.556 -18.056,-16.445 -24.834,-26.667c-6.833,-10.222 -11.833,-21.278 -15,-33.167c-3.222,-11.888 -4.444,-23.972 -3.666,-36.25c0.778,-12.277 3.472,-24.111 8.083,-35.5c4.667,-11.333 11.028,-21.666 19.083,-31c8,-9.333 17.306,-17.083 27.917,-23.25c10.556,-6.277 21.861,-10.694 33.917,-13.25c12.055,-2.5 18.055,-3.75 18,-3.75c-0,0 0.528,4.889 1.583,14.667c1.056,9.722 15.111,9.389 42.167,-1c27,-10.5 53.25,-12.25 78.75,-5.25c25.444,6.945 55.222,5.333 89.333,-4.833c34.167,-10.222 66.306,-20.639 96.417,-31.25c30.166,-10.667 51.833,-17.889 65,-21.667c13.166,-3.722 22.972,-6.389 29.416,-8c6.445,-1.555 12.945,-2.305 19.5,-2.25c6.612,0 13.139,0.806 19.584,2.417c6.444,1.611 12.583,3.972 18.416,7.083c5.834,3.111 11.223,6.861 16.167,11.25c4.945,4.445 9.306,9.389 13.083,14.833c3.723,5.445 6.75,11.278 9.084,17.5c2.333,6.167 3.861,12.556 4.583,19.167c0.778,6.5 0.778,13.056 0,19.667c-0.833,6.555 -2.444,12.916 -4.833,19.083c-2.389,6.167 -5.472,11.972 -9.25,17.417c-3.778,5.444 -8.139,10.361 -13.084,14.75c-5,4.389 -10.444,8.083 -16.333,11.083c-5.833,3.056 -8.75,4.583 -8.75,4.583Z" style="fill:#2f9e44;fill-rule:nonzero;"/></g></g></svg>