<?xml version="1.0" encoding="UTF-8" standalone="no"?><!DOCTYPE svg PUBLIC "-//W3C//DTD SVG 1.1//EN" "http://www.w3.org/Graphics/SVG/1.1/DTD/svg11.dtd"><svg width="100%" height="100%" viewBox="0 0 4105 4067" version="1.1" xmlns="http://www.w3.org/2000/svg" xmlns:xlink="http://www.w3.org/1999/xlink" xml:space="preserve" xmlns:serif="http://www.serif.com/" style="fill-rule:evenodd;clip-rule:evenodd;stroke-linecap:round;stroke-linejoin:round;stroke-miterlimit:1.5;"><rect id="Dark" x="-70.833" y="3.5" width="15098.6" height="4389.21" style="fill:none;"/><clipPath id="_clip1"><rect x="-70.833" y="3.5" width="15098.6" height="4389.21"/></clipPath><g clip-path="url(#_clip1)"><rect x="-70.833" y="76.995" width="15098.6" height="4315.72" style="fill:#171d21;stroke:#171d21;stroke-width:100px;"/><g><path d="M2945.46,3380.95c380.333,43.25 756.083,36.5 980.75,-0c135.25,16.917 174.417,95.917 162.417,162.417c20,43.416 -41.334,109.583 -0,324.75c-22.417,125.416 -62.834,185.5 -162.417,162.333c-214,-49.917 -418,-24.833 -980.75,-0c-154.25,-44.167 -180.083,-17.917 -162.417,-162.333c47.334,-99.334 -35.333,-259.417 0,-324.75c-25.166,-73.75 10.5,-173.75 162.417,-162.417" style="fill:#e6e6e6;fill-rule:nonzero;stroke:#e6e6e6;stroke-width:4.17px;stroke-linecap:butt;stroke-miterlimit:2;"/></g><g><path d="M174.917,3380.95c227.5,19 419,17.083 980.75,-0c125.166,12 204.166,8.5 162.416,162.417c-16.166,43.166 -15.583,136.666 0,324.75c17.167,99.5 -31,127.333 -162.416,162.333c-251.917,27.167 -452,-42 -980.75,-0c-152.417,-17.667 -126.167,-25.417 -162.417,-162.333c11.167,-119.25 -31.583,-182.667 0,-324.75c34.5,-151.917 42.75,-145.417 162.417,-162.417" style="fill:#e6e6e6;fill-rule:nonzero;stroke:#d9d9d9;stroke-width:4.17px;stroke-linecap:butt;stroke-miterlimit:2;"/></g><g><path d="M1227.13,3997.16c-31.283,-16.256 -61.901,-33.949 -92.061,-52.647c-26.787,-14.138 -53.215,-28.438 -79.221,-42.675c-149.333,-81.75 -299.5,-163 -418.417,-281.5c-59.892,-59.682 -111.613,-130.858 -159.601,-205.633c-102.541,-115.266 -193.36,-239.464 -258.732,-374.617c-31.106,-64.309 -55.022,-131.821 -75.079,-201.377c-15.596,-33.822 -29.689,-67.789 -41.754,-101.873c-54.834,-154.666 -82.917,-303.583 -88.417,-473.833c-0.528,-16.604 -0.73,-33.594 -0.634,-50.891c-7.638,-61.585 -11.912,-122.247 -10.616,-180.026c3.75,-167.333 49.917,-317.083 97.667,-477.083c47.833,-160 104.666,-336.5 189.083,-482.75c68.885,-119.46 144.33,-222.795 245.32,-325.448c92.286,-108.212 191.405,-202.202 310.097,-285.385c52.478,-36.748 110.145,-72.216 170.36,-105.172c124.771,-108.171 325.452,-144.135 486.973,-191.578c163.333,-48 322.917,-87 488.75,-92.584c78.819,-2.652 159.123,1.861 239.725,11.457c36.463,-0.09 72.258,1.507 107.025,5.377c98.718,10.934 187.222,37.649 277.298,71.436c131.771,35.378 265.267,81.115 383.869,142.98c43.91,22.905 86.968,48.696 129.001,76.505c53.773,28.047 105.125,58.254 151.082,90.995c117.831,83.967 251.728,237.105 323.155,321.981c55.498,61.775 106.507,126.371 151.095,194.436c29.942,45.679 57.072,92.754 81.889,141.204c29.137,53.2 55.438,106.943 80.028,157.546c72,148.25 113.333,294.917 143.75,456.25c30.416,161.417 48.25,340.833 38.75,511.917c-9.417,171 -42,350.916 -95.5,514.166c-53.417,163.25 -131,324.584 -225.167,465.25c-44.595,66.675 -94.526,129.587 -148.311,189.473c-95.299,114.153 -208.554,225.316 -326.689,314.777c-95.672,72.509 -199.429,135.122 -307.859,188.527c-34.059,17.444 -67.942,32.941 -101.94,46.97c-0.949,0.409 -1.897,0.816 -2.846,1.223c7.125,-235.082 3.339,-320.955 -2.808,-415.932c5.727,-64.513 -5.305,-112.267 -28.672,-147.923c44.835,-31.408 87.716,-66.058 129.524,-102.633c26.532,-22.527 52.37,-46.171 77.459,-70.622c4.558,-4.297 9.109,-8.608 13.655,-12.93c103.417,-98.417 213.25,-213.833 287.417,-335.083c74.166,-121.334 124.666,-254 157.416,-392.834c26.598,-112.399 39.798,-237.65 40.707,-357.057c3.253,-89.274 -0.463,-179.739 -14.207,-264.193c-7.53,-46.411 -18.424,-92.462 -31.844,-137.917c-8.554,-32.994 -18.474,-65.608 -29.906,-97.749c-20.038,-56.206 -45.523,-112.159 -74.632,-166.834c-0.733,-1.529 -1.466,-3.057 -2.201,-4.583c-61.583,-128 -137.917,-256.833 -230.833,-360.5c-92.917,-103.667 -206.25,-187 -326.5,-261.333c-120.334,-74.25 -256.917,-146.417 -395.25,-184.334c-8.475,-2.317 -17.03,-4.609 -25.656,-6.863c-80.813,-29.396 -163.016,-50.749 -236.844,-45.72l0.269,2.819c-59.355,-4.645 -117.854,-3.374 -172.603,7.014l3.163,0.49c-71.302,3.793 -150.941,10.34 -218.372,21.204c-77.606,8.316 -153.919,19.751 -212.291,35.723c-69.026,18.935 -130.711,44.033 -188.485,73.208c-13.154,5.701 -26.089,11.654 -38.765,17.875c-90.077,44.297 -173.191,102.562 -250.754,167.798c-83.892,64.699 -162.304,137.707 -228.996,218.119c-54.074,65.188 -102.814,137.978 -145.326,213.946c-71.999,120.291 -134.515,255.159 -167.59,389.637c-22.367,90.941 -31.556,187.846 -33.155,283.281c-2.169,62.33 -0.015,125.526 5.439,187.889c8.487,116.986 27.486,231.034 63.355,343.179c20.364,69.703 45.693,137.759 76.944,202.568c48.496,100.438 114.479,198.716 186.643,287.297c70.808,90.801 151.953,175.429 238.524,246.703c40.66,33.502 83.453,65.148 127.856,94.467c-16.806,39.947 -23.563,92.022 -23.823,155.891c-2.091,249.364 18.154,337.534 9.069,438.534Z" style="fill:#e6e6e6;"/><path d="M3487.52,653.5c139.083,87.25 219.916,248.583 304.25,397.917c84.416,149.333 150.666,333.333 202,498c51.416,164.583 98.166,325.166 106.416,489.666c8.25,164.584 -18.833,331.417 -56.833,497.5c-38.083,166.084 -96.083,347.667 -171.583,498.917c-75.584,151.333 -172.25,280.333 -281.667,408.75c-109.5,128.417 -234.667,263.25 -375,361.667c-140.333,98.416 -308.333,173.916 -466.917,229c-158.5,55.166 -317.666,83.75 -484.333,101.833c-166.75,18.083 -347.417,29.583 -516,6.75c-168.5,-22.917 -343.083,-80.583 -495.333,-144.167c-152.25,-63.5 -283.167,-135.166 -418.167,-237c-135.083,-101.833 -284.667,-241.166 -392.083,-374.083c-107.417,-132.917 -186,-269 -252.667,-423.333c-66.583,-154.334 -119.75,-336.167 -147.167,-502.834c-27.333,-166.666 -34,-329.666 -16.916,-497.333c17,-167.667 63.333,-345.083 119.333,-508.583c56,-163.5 127.167,-331.25 216.583,-472.417c89.417,-141.167 197.417,-261.917 320.084,-374.667c122.75,-112.666 266.416,-225.25 416.166,-301.583c149.834,-76.25 317.917,-117.75 482.584,-156.167c164.666,-38.333 332.916,-77.25 505.416,-74.166c172.5,3.083 367.667,44.833 529.584,92.666c161.916,47.834 237.833,32.75 442,194.25c204.083,161.5 623.416,549.084 782.75,774.584c159.333,225.583 204.75,563.25 173.25,578.75m-3206.42,-1209.75c105.167,-129.417 272.417,-197 422.5,-262.834c150.083,-65.833 308.417,-108.666 477.833,-132.166c169.5,-23.5 368,-25 539,-8.834c171.084,16.167 329.75,55.584 487.417,105.917c157.667,50.25 320.917,104 458.75,195.833c137.75,91.917 259.25,227.084 368.083,355.5c108.834,128.5 202.834,268.25 284.75,415.334c81.917,147.083 166.417,299.416 206.834,467.25c40.416,167.916 46.25,371 35.75,540.083c-10.5,169.167 -54.834,312.417 -98.75,474.667c-43.834,162.25 -86.667,348.583 -164.417,498.916c-77.75,150.334 -184.917,283.417 -302.167,402.917c-117.166,119.5 -255.166,224.833 -401.083,314c-145.917,89.167 -306.25,175.917 -474.333,220.833c-168.084,45 -367.25,43.417 -534.25,48.917c-166.917,5.583 -304.417,20.5 -467.417,-15.5c-163.083,-36.083 -354.75,-121.5 -510.667,-200.833c-155.916,-79.334 -300.583,-167.25 -424.833,-275.084c-124.25,-107.833 -228.417,-232.333 -320.75,-372.083c-92.25,-139.75 -169.917,-305.5 -233.167,-466.417c-63.333,-161 -127.416,-332.25 -146.583,-499.416c-19.083,-167.167 2.25,-339.834 31.917,-503.5c29.75,-163.584 85.5,-321 146.25,-478.167c60.75,-157.167 119.833,-333.75 218.25,-464.833c98.416,-131.084 301.916,-267.667 372.25,-321.584c70.416,-53.916 24.333,-29 50.166,-1.916" style="fill:none;fill-rule:nonzero;"/></g><g><path d="M1584.37,683.846c120.333,-65.75 278.75,-72.333 423,-74.5c144.333,-2.25 304.25,24.084 442.833,61.25c138.584,37.167 269.417,89.584 388.584,161.834c119.083,72.25 230.083,166.916 326.083,271.583c95.917,104.583 187.5,228.25 249.583,356.167c62.084,128 99,272.583 122.834,411.583c23.916,139 36.25,281.75 20.5,422.417c-15.75,140.75 -57.25,290.666 -114.917,421.666c-57.667,131 -141,255.75 -231.083,364.417c-90,108.667 -192.75,206.333 -309.334,287.583c-116.583,81.334 -256,157.084 -390.166,200.084c-134.167,43 -273.25,55.833 -415,58c-141.667,2.166 -298.084,-9.167 -435.417,-44.75c-137.417,-35.584 -267.5,-95.417 -388.833,-168.75c-121.25,-73.25 -243.167,-167.75 -338.75,-271.167c-95.667,-103.417 -173.084,-221.917 -234.917,-349.167c-61.75,-127.333 -110.167,-272.666 -135.75,-414.5c-25.667,-141.833 -34.583,-294.25 -18.083,-436.5c16.5,-142.166 61.083,-286.416 117,-416.75c55.916,-130.333 127.333,-255.833 218.583,-365.166c91.25,-109.25 182.333,-205.334 328.917,-290.5c146.666,-85.084 427.333,-182.334 550.833,-220.417c123.417,-38 183.833,-31.25 189.917,-7.75m-118.084,-19.667c127.584,-43.166 285.667,-12.916 427.5,10.167c141.917,23.167 295.084,69.417 423.834,128.417c128.75,59 243.583,134.833 348.666,225.75c105.167,90.916 204.084,198.833 282,319.75c78,120.916 143.75,268.166 185.917,405.75c42.167,137.583 66.167,278.666 67.083,419.666c0.834,141 -19,291.584 -61.75,426.25c-42.75,134.667 -117,264.584 -194.583,381.834c-77.5,117.166 -165.083,226.75 -270.833,321.416c-105.834,94.667 -233.5,186.834 -363.834,246.584c-130.416,59.75 -279.583,95.333 -418.25,111.916c-138.666,16.584 -273.5,7.084 -413.75,-12.416c-140.25,-19.584 -298.416,-49.084 -427.583,-104.834c-129.167,-55.666 -242.25,-136.916 -347.25,-229.5c-105.083,-92.5 -205.917,-205.583 -283.083,-325.666c-77.167,-120.167 -140.75,-255.917 -179.75,-395.334c-39,-139.333 -52.417,-300 -54.167,-441c-1.75,-141 4.167,-269.916 43.5,-404.916c39.417,-135.084 116.25,-283.667 192.583,-405.25c76.334,-121.667 160.25,-233.5 265.417,-324.5c105.167,-91.084 235.333,-164.917 365.667,-221.75c130.333,-56.75 347.416,-101.75 416.333,-119.084c68.917,-17.416 -5,-9.333 -2.833,14.834" style="fill:none;fill-rule:nonzero;"/></g><g><g><path d="M3282.87,2088.98c-401.084,-2.25 -2106.25,125.417 -2411.42,-37.5c-305.083,-163 343.25,-750.416 580.5,-940.416c237.333,-189.917 561.417,-270.917 843.167,-199.5c281.75,71.333 680.083,430.416 847.25,627.75c167.25,197.333 135.416,466.916 155.916,556.166" style="fill:#ff7373;"/><path d="M3276.87,2070.56c-399.084,-7.417 -2076.58,127.416 -2380.5,-31.75c-303.834,-159.167 323.416,-735.667 557.416,-923.167c234,-187.417 561.334,-272.583 846.5,-201.5c285.084,71.167 700.584,435.75 864.25,628.417c163.75,192.583 98.667,437.833 117.917,527.333m9.5,19.917c-400.5,-7.084 -2092.42,118.75 -2399.92,-42.667c-307.5,-161.333 320.167,-734 554.834,-925.5c234.666,-191.583 568.083,-294.583 853.083,-223.833c284.917,70.833 690.917,450.166 856.583,648.666c165.667,198.5 116.167,455 137.334,542.5" style="fill:none;"/></g></g><g><g><path d="M882.521,2165.28c401.334,4.25 2083.92,-116.334 2383.92,43.416c300.083,159.75 -348.083,726.584 -583.583,915.084c-235.417,188.583 -547.417,281.333 -829,216.083c-281.5,-65.167 -699.5,-411.333 -860.334,-607.083c-160.833,-195.75 -83.583,-475.25 -104.5,-567.334" style="fill:#7ec9ff;"/><path d="M864.105,2190.2c396.166,5.584 2085.83,-136.166 2389.75,20.25c303.833,156.5 -333.5,726.584 -566.334,918.5c-232.916,191.917 -549.166,301.834 -831,233.167c-281.75,-68.667 -694.333,-448.25 -859.833,-645.167c-165.5,-196.916 -112.667,-447.083 -133.25,-536.5m16.5,4.667c398.5,7.667 2087.58,-121.083 2392.08,37.667c304.417,158.75 -325.583,727.666 -565.416,914.75c-239.834,187 -586.667,277.083 -873.584,207.5c-286.833,-69.667 -687.75,-429.334 -847.833,-625.167c-160.167,-195.75 -95.5,-457.667 -112.75,-549.583" style="fill:none;"/></g></g><g><path d="M1985.23,836.716c126.25,-26.333 267.75,2.333 393.75,35.167c126,32.916 250.583,90.083 362.167,162.166c111.666,72 224.166,166.5 307.5,270c83.416,103.5 145.166,228.084 192.833,351c47.75,123 85.583,254.5 93.417,386.667c7.833,132.25 -9.917,278.167 -46.25,406.833c-36.334,128.584 -99.5,254.584 -171.584,365c-72.166,110.334 -158.916,212.167 -261.166,297.25c-102.25,85.084 -229.584,166 -352.5,213.084c-122.917,47.166 -252.667,64.333 -385,69.916c-132.334,5.584 -280.667,-3.083 -409.084,-36.416c-128.333,-33.334 -250,-91.917 -361.25,-163.75c-111.25,-71.917 -222.666,-165.834 -306.166,-267.417c-83.5,-101.583 -147.667,-218.667 -194.834,-342.167c-47.083,-123.583 -79.166,-264.75 -88.083,-399.083c-8.833,-134.417 0.75,-277.75 34.917,-407.167c34.166,-129.333 97.583,-258.166 170.083,-369.166c72.417,-111.084 160.583,-213.834 264.667,-297c104.083,-83.25 230.5,-156.5 359.916,-202.25c129.417,-45.75 340.167,-62.167 416.584,-72.417c76.5,-10.25 40.333,-9.333 42.083,10.917m-191.5,-13.667c119.417,-38.25 268.25,-9.583 400.333,15.917c132.167,25.5 275.5,75.166 392.5,137.166c117,61.917 219.084,141.5 309.417,234.584c90.333,93.083 172.75,203.416 232.5,324c59.833,120.583 105.25,266.666 126.333,399.333c21,132.75 21.834,267 0.084,396.75c-21.75,129.833 -65.834,266.083 -130.417,381.917c-64.583,115.833 -161.25,222.75 -257.25,313.083c-95.917,90.25 -200.833,168.167 -318.417,228.5c-117.583,60.25 -254.333,113.333 -386.833,133c-132.5,19.75 -279.417,11.333 -408.333,-14.833c-128.834,-26.25 -247.834,-81.167 -364.834,-142.334c-117.083,-61.25 -244.916,-133.083 -337.333,-224.916c-92.5,-91.917 -161.25,-207.584 -217.583,-326.167c-56.334,-118.583 -101.167,-253.417 -120.417,-385.417c-19.333,-132 -19,-272.833 4.583,-406.666c23.584,-133.917 76.834,-280.25 136.917,-396.584c60.083,-116.333 129.167,-210.333 223.583,-301.583c94.417,-91.333 224.417,-185.333 343,-246.083c118.584,-60.75 305.834,-104.667 368.5,-118.417c62.584,-13.833 3.084,12.583 7.334,35.833" style="fill:none;fill-rule:nonzero;stroke:#d9d9d9;stroke-width:58.33px;stroke-linejoin:miter;stroke-miterlimit:4;"/></g><g><g><path d="M1121.47,2066.96c53.045,-1.917 235.128,107.583 322.095,-3.583c86.968,-111.084 108.335,-773.667 199.709,-663.334c91.374,110.417 229.807,1336.08 348.535,1325.58c118.811,-10.5 258.741,-1317.58 363.916,-1388.67c105.176,-71.167 167.866,801.167 267.138,961.917c99.273,160.75 271.877,3.583 328.581,2.5m-1816.09,-243.667c56.371,-1.25 241.28,128.25 325.753,16.083c84.39,-112.083 91.79,-799.083 180.753,-689c88.88,110.084 231.22,1357.42 352.775,1349.67c121.472,-7.667 274.455,-1321.58 376.471,-1395.83c102.016,-74.25 138.35,791.583 235.544,950.166c97.11,158.584 288.755,-3.166 347.37,1.334" style="fill:none;fill-rule:nonzero;stroke:#d9d9d9;stroke-width:99.89px;stroke-linejoin:miter;stroke-miterlimit:4;"/></g></g></g></svg>